<svg width="276" height="78" viewBox="0 0 276 78" fill="none" xmlns="http://www.w3.org/2000/svg">
<path d="M25.665 45.536C25.665 45.5753 25.665 45.6147 25.665 45.654C25.7043 45.654 25.7437 45.654 25.783 45.654H48.793V63H1.18C1.18 60.5613 1.18 58.1227 1.18 55.684C1.18 53.2453 1.18 50.8067 1.18 48.368C1.18 45.89 1.18 43.4317 1.18 40.993C1.18 38.5543 1.18 36.1157 1.18 33.677C1.18 31.199 1.18 28.721 1.18 26.243C1.18 23.7257 1.18 21.228 1.18 18.75H25.665C25.665 20.992 25.665 23.234 25.665 25.476C25.665 27.6787 25.665 29.901 25.665 32.143C25.665 34.385 25.665 36.627 25.665 38.869C25.665 41.0717 25.665 43.294 25.665 45.536ZM97.8128 26.42C97.8128 29.0553 97.8128 31.7103 97.8128 34.385C97.8128 37.0597 97.8128 39.7343 97.8128 42.409C97.8128 44.6903 97.8128 46.9913 97.8128 49.312C97.8128 51.5933 97.8128 53.8747 97.8128 56.156C97.8128 58.4373 97.8128 60.7187 97.8128 63H77.3988C77.3988 61.348 77.3988 59.6763 77.3988 57.985C77.3988 56.2937 77.3988 54.6023 77.3988 52.911C77.3988 51.1803 77.3988 49.5087 77.3988 47.896C77.3988 44.238 77.3988 40.6587 77.3988 37.158C77.3988 33.618 77.3988 30.0387 77.3988 26.42H97.8128ZM71.1448 26.42C71.1448 28.5047 71.1448 30.609 71.1448 32.733C71.1448 34.8177 71.1448 36.9023 71.1448 38.987C71.1448 41.0717 71.1448 43.176 71.1448 45.3C71.1448 46.1653 71.2824 46.8733 71.5578 47.424C71.8724 47.9353 72.2658 48.309 72.7378 48.545C73.2491 48.7417 73.7801 48.84 74.3308 48.84C74.8814 48.84 75.4321 48.7417 75.9828 48.545C76.5728 48.3483 77.0448 48.1123 77.3988 47.837L72.6788 62.41C71.5774 62.9607 70.2204 63.413 68.6078 63.767C67.0344 64.121 65.3824 64.298 63.6518 64.298C62.0784 64.298 60.5248 64.1013 58.9908 63.708C57.4568 63.354 56.0604 62.7443 54.8018 61.879C53.5824 61.0137 52.5991 59.873 51.8518 58.457C51.1044 57.041 50.7308 55.271 50.7308 53.147C50.7308 50.315 50.7308 47.483 50.7308 44.651C50.7308 41.819 50.7308 38.987 50.7308 36.155C50.7308 34.5423 50.7308 32.9297 50.7308 31.317C50.7308 29.665 50.7308 28.0327 50.7308 26.42H71.1448ZM100.166 63C100.166 60.2073 100.166 57.4147 100.166 54.622C100.166 51.8293 100.166 49.0367 100.166 46.244C100.166 43.412 100.166 40.5997 100.166 37.807C100.166 35.8797 100.166 33.972 100.166 32.084C100.166 30.196 100.166 28.308 100.166 26.42H120.58C120.58 29.016 120.58 31.612 120.58 34.208C120.58 36.7647 120.58 39.341 120.58 41.937C120.58 45.4377 120.58 48.958 120.58 52.498C120.58 55.9987 120.58 59.4993 120.58 63H100.166ZM127.188 63C127.188 59.932 127.188 56.8247 127.188 53.678C127.188 50.5313 127.188 47.424 127.188 44.356C127.188 43.2153 126.893 42.409 126.303 41.937C125.753 41.465 125.084 41.2093 124.297 41.17C123.511 41.1307 122.783 41.229 122.114 41.465C121.485 41.701 121.092 41.937 120.934 42.173L125.654 27.01C128.526 25.7513 131.633 25.122 134.976 25.122C136.628 25.122 138.202 25.3187 139.696 25.712C141.191 26.1053 142.528 26.715 143.708 27.541C144.928 28.367 145.872 29.4683 146.54 30.845C147.248 32.1823 147.602 33.795 147.602 35.683C147.602 36.8237 147.602 37.984 147.602 39.164C147.602 40.344 147.602 41.5043 147.602 42.645C147.602 43.1957 147.602 43.766 147.602 44.356C147.602 44.9067 147.602 45.4573 147.602 46.008C147.602 46.5587 147.602 47.129 147.602 47.719C147.602 50.2363 147.602 52.7733 147.602 55.33C147.602 57.8867 147.602 60.4433 147.602 63H127.188ZM153.856 63C153.856 59.932 153.856 56.8247 153.856 53.678C153.856 50.5313 153.856 47.424 153.856 44.356C153.856 43.2153 153.561 42.409 152.971 41.937C152.421 41.465 151.752 41.2093 150.965 41.17C150.179 41.1307 149.451 41.229 148.782 41.465C148.153 41.701 147.76 41.937 147.602 42.173L151.732 27.01C153.148 26.3807 154.663 25.9087 156.275 25.594C157.927 25.2793 159.56 25.122 161.172 25.122C163.454 25.122 165.578 25.476 167.544 26.184C169.55 26.892 171.163 28.013 172.382 29.547C173.641 31.081 174.27 33.1263 174.27 35.683V63H153.856ZM230.252 38.102C230.252 35.86 230.881 33.913 232.14 32.261C233.438 30.609 235.188 29.2323 237.391 28.131C239.594 26.9903 242.091 26.1447 244.884 25.594C247.677 25.0433 250.587 24.768 253.616 24.768C257.353 24.768 260.814 25.1023 264 25.771C267.225 26.4397 270.136 27.3247 272.732 28.426V42.114C271.631 41.288 270.175 40.58 268.366 39.99C266.596 39.4 264.708 38.9477 262.702 38.633C260.735 38.3183 258.867 38.161 257.097 38.161C255.917 38.161 254.835 38.2397 253.852 38.397C252.908 38.515 252.141 38.7117 251.551 38.987C251 39.2623 250.725 39.6163 250.725 40.049C250.725 40.285 250.804 40.462 250.961 40.58C251.158 40.698 251.433 40.7767 251.787 40.816C252.141 40.8553 252.593 40.875 253.144 40.875C254.049 40.875 254.855 40.875 255.563 40.875C256.271 40.875 257.058 40.875 257.923 40.875C259.89 40.875 261.856 41.0127 263.823 41.288C265.829 41.524 267.638 42.0157 269.251 42.763C270.903 43.5103 272.221 44.592 273.204 46.008C274.187 47.3847 274.679 49.2137 274.679 51.495C274.679 53.8943 274.01 55.9397 272.673 57.631C271.375 59.283 269.585 60.64 267.304 61.702C265.062 62.7247 262.525 63.472 259.693 63.944C256.9 64.416 253.99 64.652 250.961 64.652C247.382 64.652 243.842 64.3177 240.341 63.649C236.88 62.9803 233.91 61.997 231.432 60.699V46.303C232.415 47.365 233.812 48.25 235.621 48.958C237.47 49.6267 239.456 50.138 241.58 50.492C243.743 50.8067 245.769 50.964 247.657 50.964C248.876 50.964 249.978 50.905 250.961 50.787C251.944 50.6297 252.711 50.4133 253.262 50.138C253.852 49.8233 254.147 49.43 254.147 48.958C254.147 48.7613 254.088 48.6237 253.97 48.545C253.852 48.4663 253.655 48.4073 253.38 48.368C253.144 48.3287 252.81 48.309 252.377 48.309C251.787 48.309 251.177 48.309 250.548 48.309C249.919 48.309 249.348 48.309 248.837 48.309C247.46 48.309 245.926 48.2697 244.235 48.191C242.583 48.073 240.931 47.8567 239.279 47.542C237.627 47.188 236.113 46.657 234.736 45.949C233.399 45.2017 232.317 44.1987 231.491 42.94C230.665 41.642 230.252 40.0293 230.252 38.102Z" fill="white"/>
<path opacity="0.986" fill-rule="evenodd" clip-rule="evenodd" d="M222.459 41.7585C222.664 41.7754 222.819 41.9414 222.968 42.0842C223.017 42.1319 223.088 42.1589 223.156 42.1685C223.935 42.2788 224.717 42.3147 225.503 42.276C227.1 42.3877 228.692 42.5511 230.28 42.7659C231.158 42.9126 230.353 43.802 229.468 43.9015C225.438 44.3546 221.421 44.9152 217.418 45.5833C211.523 46.9876 207.807 50.6214 206.271 56.4852C205.923 58.1686 205.612 59.8549 205.337 61.5441C205.222 62.2514 204.973 62.9672 204.858 63.6745C204.68 64.7671 204.843 65.8677 204.707 66.9662C204.459 68.9684 204.255 70.9788 204.097 72.9973C204.077 73.2498 203.973 73.5281 203.728 73.5929C203.398 73.6801 203.186 73.3096 203.147 72.971C202.526 67.6347 201.771 62.3028 200.882 56.9752C199.364 50.8848 195.567 47.0875 189.49 45.5833C188.062 45.291 186.628 45.0497 185.188 44.8596C184.467 44.7644 183.787 44.5476 183.063 44.4749C182.468 44.4152 181.841 44.4468 181.247 44.3815C179.729 44.2146 178.209 44.0572 176.687 43.9095C176.417 43.8833 176.159 43.7414 176.076 43.4841C175.945 43.0823 176.318 42.7451 176.739 42.7132C180.85 42.4016 184.937 41.8883 189 41.1735C196.104 39.3765 200.228 34.8443 201.371 27.5767C201.595 26.3607 202.207 22.4409 202.229 21.2071C202.484 18.5411 202.846 16.4745 203.079 13.8213C203.084 13.7641 203.093 13.707 203.107 13.6513L203.166 13.4163C203.194 13.3061 203.261 13.2101 203.356 13.147C203.492 13.0561 203.667 13.0452 203.813 13.1185L203.824 13.124C203.974 13.199 204.074 13.3474 204.087 13.5147C204.523 19.1018 205.251 24.7653 206.271 30.2716C208.017 36.1823 211.896 39.8163 217.908 41.1735C219.418 41.438 220.935 41.633 222.459 41.7585Z" fill="white"/>
<path opacity="0.986" fill-rule="evenodd" clip-rule="evenodd" d="M222.459 41.7585C222.664 41.7754 222.819 41.9414 222.968 42.0842C223.017 42.1319 223.088 42.1589 223.156 42.1685C223.935 42.2788 224.717 42.3147 225.503 42.276C227.1 42.3877 228.692 42.5511 230.28 42.7659C231.158 42.9126 230.353 43.802 229.468 43.9015C225.438 44.3546 221.421 44.9152 217.418 45.5833C211.523 46.9876 207.807 50.6214 206.271 56.4852C205.923 58.1686 205.612 59.8549 205.337 61.5441C205.222 62.2514 204.973 62.9672 204.858 63.6745C204.68 64.7671 204.843 65.8677 204.707 66.9662C204.459 68.9684 204.255 70.9788 204.097 72.9973C204.077 73.2498 203.973 73.5281 203.728 73.5929C203.398 73.6801 203.186 73.3096 203.147 72.971C202.526 67.6347 201.771 62.3028 200.882 56.9752C199.364 50.8848 195.567 47.0875 189.49 45.5833C188.062 45.291 186.628 45.0497 185.188 44.8596C184.467 44.7644 183.787 44.5476 183.063 44.4749C182.468 44.4152 181.841 44.4468 181.247 44.3815C179.729 44.2146 178.209 44.0572 176.687 43.9095C176.417 43.8833 176.159 43.7414 176.076 43.4841C175.945 43.0823 176.318 42.7451 176.739 42.7132C180.85 42.4016 184.937 41.8883 189 41.1735C196.104 39.3765 200.228 34.8443 201.371 27.5767C201.595 26.3607 202.207 22.4409 202.229 21.2071C202.484 18.5411 202.846 16.4745 203.079 13.8213C203.084 13.7641 203.093 13.707 203.107 13.6513L203.166 13.4163C203.194 13.3061 203.261 13.2101 203.356 13.147C203.492 13.0561 203.667 13.0452 203.813 13.1185L203.824 13.124C203.974 13.199 204.074 13.3474 204.087 13.5147C204.523 19.1018 205.251 24.7653 206.271 30.2716C208.017 36.1823 211.896 39.8163 217.908 41.1735C219.418 41.438 220.935 41.633 222.459 41.7585Z" fill="white"/>
<path opacity="0.889" fill-rule="evenodd" clip-rule="evenodd" d="M206.746 23.167C207.242 23.1273 207.732 23.1681 208.216 23.2895C208.491 24.3578 208.082 24.6436 206.991 24.147C206.763 23.8557 206.682 23.5291 206.746 23.167Z" fill="white"/>
<path opacity="0.835" fill-rule="evenodd" clip-rule="evenodd" d="M198.416 62.365C198.833 62.3258 199.241 62.3665 199.641 62.4875C200.008 63.4285 199.681 63.7551 198.661 63.4674C198.16 63.1671 198.078 62.7996 198.416 62.365Z" fill="white"/>
<path opacity="0.944" fill-rule="evenodd" clip-rule="evenodd" d="M198.962 20.5564C198.843 20.398 198.724 20.2396 198.604 20.0812C197.311 20.6003 196.73 21.5702 196.859 22.991C196.951 22.9649 196.985 23.0101 196.961 23.1268C197.071 23.1164 197.173 23.1105 197.267 23.1092C198.328 22.566 198.893 21.7151 198.962 20.5564Z" fill="white"/>
<path opacity="0.941" fill-rule="evenodd" clip-rule="evenodd" d="M196.555 23.8584C196.332 23.9714 196.208 24.1359 196.182 24.352C196.951 25.0972 197.855 25.3562 198.894 25.1288C199.71 24.6341 199.673 24.1838 198.781 23.7778C198.022 23.5382 197.28 23.5651 196.555 23.8584Z" fill="white"/>
<path opacity="0.859" fill-rule="evenodd" clip-rule="evenodd" d="M197.267 23.1092C197.173 23.1105 197.071 23.1164 196.961 23.1268C196.985 23.0101 196.951 22.9649 196.859 22.991C196.469 23.4542 196.061 23.9025 195.638 24.3361C195.543 24.4288 195.487 24.5423 195.468 24.6764C195.403 24.6867 195.341 24.6982 195.282 24.7107C194.438 25.3913 193.544 25.9935 192.599 26.5175C192.536 26.7376 192.405 26.8001 192.209 26.7052C190.99 27.2185 189.863 27.8891 188.83 28.7173C188.749 28.8995 188.613 29.0017 188.423 29.024C187.382 29.9601 186.466 31.0044 185.675 32.1567C185.709 32.202 185.703 32.2416 185.658 32.2757C185.63 32.3324 185.602 32.3891 185.573 32.4458C184.722 33.7563 184.159 35.1738 183.882 36.6984C183.95 36.7889 184.018 36.8795 184.086 36.97C184.165 36.9264 184.225 36.8639 184.264 36.7827C184.428 36.1224 184.611 35.4705 184.813 34.8269C184.793 34.7526 184.821 34.6958 184.898 34.6568C185.385 33.3489 186.08 32.1521 186.982 31.0664C186.972 30.8307 187.09 30.7058 187.338 30.6918C188.068 29.779 188.927 28.9899 189.917 28.3243C189.945 28.259 189.945 28.1882 189.917 28.1118C190.124 28.1059 190.322 28.0631 190.511 27.9832C191.591 27.4457 192.661 26.8885 193.721 26.3114C193.748 26.2462 193.748 26.1754 193.72 26.099C193.899 26.0853 194.075 26.0595 194.247 26.0215C194.916 25.4921 195.56 24.9356 196.182 24.3521C196.208 24.136 196.333 23.9715 196.555 23.8585C196.792 23.6087 197.03 23.359 197.267 23.1092Z" fill="white"/>
<path opacity="0.946" fill-rule="evenodd" clip-rule="evenodd" d="M195.282 24.7107C195.341 24.6982 195.403 24.6867 195.468 24.6764C195.487 24.5423 195.543 24.4289 195.638 24.3361C195.798 23.2798 195.491 22.3768 194.715 21.6267C194.137 21.3873 193.826 21.5862 193.781 22.2234C193.858 23.3095 194.358 24.1386 195.282 24.7107Z" fill="white"/>
<path opacity="0.952" fill-rule="evenodd" clip-rule="evenodd" d="M194.247 26.0214C194.075 26.0594 193.899 26.0852 193.72 26.0989C193.748 26.1753 193.748 26.2461 193.721 26.3114C194.148 27.2211 194.812 27.8912 195.713 28.3218C196.264 28.563 196.743 28.4686 197.149 28.0387C197.157 27.9792 197.166 27.9197 197.174 27.8602C196.592 26.6224 195.617 26.0094 194.247 26.0214Z" fill="white"/>
<path opacity="0.947" fill-rule="evenodd" clip-rule="evenodd" d="M192.209 26.7052C192.405 26.8001 192.536 26.7375 192.599 26.5175C192.986 25.2571 192.729 24.1385 191.828 23.1619C191.396 22.9422 191.076 23.059 190.868 23.5121C190.688 24.8344 191.134 25.8988 192.209 26.7052Z" fill="white"/>
<path opacity="0.954" fill-rule="evenodd" clip-rule="evenodd" d="M190.511 27.9832C190.322 28.063 190.124 28.1059 189.917 28.1118C189.945 28.1882 189.945 28.259 189.917 28.3243C190.596 29.7451 191.71 30.5192 193.261 30.6467C194.014 30.4042 194.169 29.9507 193.726 29.286C193.257 28.8049 192.713 28.4348 192.092 28.1757C191.561 28.0905 191.034 28.0263 190.511 27.9832Z" fill="white"/>
<path opacity="0.954" fill-rule="evenodd" clip-rule="evenodd" d="M188.423 29.024C188.614 29.0017 188.749 28.8994 188.83 28.7172C188.865 28.2512 188.921 27.7837 188.997 27.3146C188.933 26.359 188.563 25.5382 187.888 24.852C187.374 24.4984 186.975 24.604 186.69 25.1687C186.534 26.1734 186.759 27.0852 187.367 27.9041C187.692 28.3035 188.044 28.6767 188.423 29.024Z" fill="white"/>
<path opacity="0.957" fill-rule="evenodd" clip-rule="evenodd" d="M187.338 30.6918C187.091 30.7059 186.972 30.8307 186.982 31.0664C187.683 32.5224 188.831 33.3418 190.428 33.5246C191.297 33.286 191.466 32.8041 190.936 32.0789C189.96 31.022 188.761 30.5596 187.338 30.6918Z" fill="white"/>
<path opacity="0.957" fill-rule="evenodd" clip-rule="evenodd" d="M185.573 32.4458C185.602 32.3891 185.63 32.3324 185.658 32.2757C185.624 32.2304 185.629 32.1907 185.675 32.1566C185.804 30.4874 185.167 29.1939 183.764 28.2763C183.097 28.188 182.752 28.4832 182.728 29.1621C183.08 30.7733 184.028 31.8679 185.573 32.4458Z" fill="white"/>
<path opacity="0.954" fill-rule="evenodd" clip-rule="evenodd" d="M184.898 34.6567C184.821 34.6957 184.793 34.7524 184.813 34.8268C185.756 36.1245 187.018 36.717 188.598 36.6045C189.115 36.5028 189.401 36.1992 189.455 35.6935C188.712 34.6659 187.706 34.2004 186.435 34.2968C185.908 34.3677 185.396 34.4877 184.898 34.6567Z" fill="white"/>
<path opacity="0.944" fill-rule="evenodd" clip-rule="evenodd" d="M198.476 62.9367C198.356 63.0951 198.237 63.2535 198.118 63.4119C196.825 62.8928 196.243 61.9229 196.372 60.5021C196.464 60.5282 196.499 60.483 196.475 60.3663C196.584 60.3767 196.686 60.3826 196.781 60.3839C197.841 60.9271 198.406 61.778 198.476 62.9367Z" fill="white"/>
<path opacity="0.941" fill-rule="evenodd" clip-rule="evenodd" d="M196.068 59.6346C195.846 59.5216 195.722 59.3571 195.695 59.141C196.464 58.3959 197.368 58.1369 198.408 58.3642C199.224 58.8589 199.186 59.3093 198.295 59.7153C197.536 59.9549 196.793 59.928 196.068 59.6346Z" fill="white"/>
<path opacity="0.859" fill-rule="evenodd" clip-rule="evenodd" d="M196.781 60.3839C196.686 60.3827 196.584 60.3768 196.475 60.3664C196.499 60.4831 196.464 60.5283 196.372 60.5021C195.982 60.039 195.575 59.5906 195.151 59.157C195.057 59.0643 195 58.9509 194.982 58.8168C194.917 58.8065 194.855 58.795 194.795 58.7824C193.951 58.1019 193.057 57.4996 192.113 56.9757C192.049 56.7556 191.919 56.693 191.722 56.7879C190.503 56.2747 189.377 55.6041 188.343 54.7759C188.263 54.5937 188.127 54.4914 187.936 54.4692C186.895 53.5331 185.98 52.4888 185.188 51.3365C185.222 51.2912 185.217 51.2515 185.171 51.2175C185.143 51.1607 185.115 51.104 185.087 51.0473C184.236 49.7369 183.672 48.3194 183.395 46.7947C183.463 46.7042 183.531 46.6137 183.6 46.5232C183.679 46.5668 183.738 46.6292 183.778 46.7105C183.941 47.3707 184.124 48.0227 184.326 48.6662C184.307 48.7406 184.335 48.7973 184.411 48.8364C184.899 50.1443 185.593 51.341 186.495 52.4268C186.485 52.6625 186.604 52.7873 186.851 52.8014C187.581 53.7142 188.441 54.5033 189.43 55.1689C189.458 55.2342 189.458 55.3049 189.43 55.3813C189.638 55.3872 189.836 55.4301 190.025 55.5099C191.105 56.0475 192.175 56.6047 193.234 57.1817C193.262 57.247 193.262 57.3178 193.234 57.3942C193.413 57.4079 193.588 57.4337 193.761 57.4717C194.429 58.0011 195.074 58.5576 195.695 59.1411C195.722 59.3572 195.846 59.5217 196.068 59.6347C196.306 59.8845 196.543 60.1342 196.781 60.3839Z" fill="white"/>
<path opacity="0.946" fill-rule="evenodd" clip-rule="evenodd" d="M194.795 58.7823C194.855 58.7949 194.917 58.8064 194.982 58.8166C195 58.9507 195.057 59.0642 195.151 59.1569C195.312 60.2132 195.004 61.1163 194.228 61.8663C193.651 62.1057 193.339 61.9068 193.294 61.2696C193.372 60.1836 193.872 59.3545 194.795 58.7823Z" fill="white"/>
<path opacity="0.952" fill-rule="evenodd" clip-rule="evenodd" d="M193.761 57.4715C193.589 57.4335 193.413 57.4077 193.234 57.394C193.262 57.3176 193.262 57.2468 193.234 57.1816C193.661 56.2718 194.325 55.6017 195.227 55.1711C195.778 54.9299 196.256 55.0243 196.662 55.4542C196.671 55.5137 196.679 55.5732 196.688 55.6328C196.106 56.8705 195.13 57.4835 193.761 57.4715Z" fill="white"/>
<path opacity="0.947" fill-rule="evenodd" clip-rule="evenodd" d="M191.722 56.7879C191.919 56.693 192.049 56.7555 192.113 56.9756C192.499 58.2359 192.242 59.3545 191.341 60.3311C190.909 60.5509 190.59 60.4341 190.382 59.9809C190.201 58.6586 190.648 57.5943 191.722 56.7879Z" fill="white"/>
<path opacity="0.954" fill-rule="evenodd" clip-rule="evenodd" d="M190.025 55.5098C189.836 55.43 189.638 55.3871 189.43 55.3812C189.458 55.3048 189.458 55.2341 189.43 55.1688C190.109 53.748 191.224 52.9739 192.775 52.8464C193.528 53.0888 193.683 53.5423 193.24 54.2071C192.771 54.6881 192.226 55.0583 191.606 55.3173C191.074 55.4025 190.547 55.4667 190.025 55.5098Z" fill="white"/>
<path opacity="0.954" fill-rule="evenodd" clip-rule="evenodd" d="M187.936 54.4691C188.127 54.4914 188.262 54.5936 188.343 54.7758C188.379 55.2419 188.434 55.7094 188.511 56.1784C188.446 57.134 188.076 57.9549 187.401 58.641C186.887 58.9946 186.488 58.8891 186.203 58.3243C186.047 57.3196 186.272 56.4078 186.88 55.589C187.205 55.1896 187.557 54.8163 187.936 54.4691Z" fill="white"/>
<path opacity="0.957" fill-rule="evenodd" clip-rule="evenodd" d="M186.851 52.8013C186.604 52.7873 186.485 52.6625 186.495 52.4267C187.196 50.9708 188.345 50.1513 189.942 49.9685C190.81 50.2071 190.979 50.689 190.449 51.4143C189.473 52.4712 188.274 52.9335 186.851 52.8013Z" fill="white"/>
<path opacity="0.957" fill-rule="evenodd" clip-rule="evenodd" d="M185.087 51.0471C185.115 51.1038 185.143 51.1606 185.171 51.2173C185.137 51.2625 185.143 51.3022 185.188 51.3363C185.317 53.0056 184.68 54.2991 183.277 55.2166C182.611 55.3049 182.266 55.0097 182.242 54.3308C182.593 52.7196 183.541 51.625 185.087 51.0471Z" fill="white"/>
<path opacity="0.954" fill-rule="evenodd" clip-rule="evenodd" d="M184.411 48.8363C184.335 48.7973 184.307 48.7406 184.326 48.6662C185.27 47.3685 186.532 46.776 188.112 46.8885C188.629 46.9901 188.914 47.2938 188.968 47.7995C188.226 48.8271 187.219 49.2926 185.949 49.1961C185.422 49.1253 184.909 49.0053 184.411 48.8363Z" fill="white"/>
<path opacity="0.944" fill-rule="evenodd" clip-rule="evenodd" d="M208.734 62.9367C208.854 63.0951 208.973 63.2535 209.092 63.4119C210.385 62.8928 210.967 61.9229 210.837 60.5021C210.745 60.5282 210.711 60.483 210.735 60.3663C210.626 60.3767 210.524 60.3826 210.429 60.3839C209.369 60.9271 208.804 61.778 208.734 62.9367Z" fill="white"/>
<path opacity="0.941" fill-rule="evenodd" clip-rule="evenodd" d="M211.142 59.6346C211.364 59.5216 211.488 59.3571 211.515 59.141C210.746 58.3959 209.841 58.1369 208.802 58.3642C207.986 58.8589 208.024 59.3093 208.915 59.7153C209.674 59.9549 210.416 59.928 211.142 59.6346Z" fill="white"/>
<path opacity="0.859" fill-rule="evenodd" clip-rule="evenodd" d="M210.429 60.3839C210.524 60.3827 210.626 60.3768 210.735 60.3664C210.711 60.4831 210.745 60.5283 210.837 60.5021C211.228 60.039 211.635 59.5906 212.059 59.157C212.153 59.0643 212.21 58.9509 212.228 58.8168C212.293 58.8065 212.355 58.795 212.415 58.7824C213.259 58.1019 214.153 57.4996 215.097 56.9757C215.161 56.7556 215.291 56.693 215.488 56.7879C216.707 56.2747 217.833 55.6041 218.867 54.7759C218.947 54.5937 219.083 54.4914 219.274 54.4692C220.314 53.5331 221.23 52.4888 222.022 51.3365C221.988 51.2912 221.993 51.2515 222.038 51.2175C222.067 51.1607 222.095 51.104 222.123 51.0473C222.974 49.7369 223.538 48.3194 223.815 46.7947C223.747 46.7042 223.679 46.6137 223.61 46.5232C223.531 46.5668 223.472 46.6292 223.432 46.7105C223.269 47.3707 223.086 48.0227 222.884 48.6662C222.903 48.7406 222.875 48.7973 222.799 48.8364C222.311 50.1443 221.617 51.341 220.715 52.4268C220.725 52.6625 220.606 52.7873 220.359 52.8014C219.629 53.7142 218.769 54.5033 217.779 55.1689C217.752 55.2342 217.752 55.3049 217.78 55.3813C217.572 55.3872 217.374 55.4301 217.185 55.5099C216.105 56.0475 215.035 56.6047 213.976 57.1817C213.948 57.247 213.948 57.3178 213.976 57.3942C213.797 57.4079 213.622 57.4337 213.449 57.4717C212.781 58.0011 212.136 58.5576 211.515 59.1411C211.488 59.3572 211.364 59.5217 211.142 59.6347C210.904 59.8845 210.667 60.1342 210.429 60.3839Z" fill="white"/>
<path opacity="0.946" fill-rule="evenodd" clip-rule="evenodd" d="M212.415 58.7823C212.355 58.7949 212.293 58.8064 212.228 58.8166C212.209 58.9507 212.153 59.0642 212.059 59.1569C211.898 60.2132 212.205 61.1163 212.981 61.8663C213.559 62.1057 213.87 61.9068 213.915 61.2696C213.838 60.1836 213.338 59.3545 212.415 58.7823Z" fill="white"/>
<path opacity="0.952" fill-rule="evenodd" clip-rule="evenodd" d="M213.449 57.4715C213.621 57.4335 213.797 57.4077 213.976 57.394C213.948 57.3176 213.948 57.2468 213.976 57.1816C213.549 56.2718 212.885 55.6017 211.983 55.1711C211.432 54.9299 210.954 55.0243 210.547 55.4542C210.539 55.5137 210.531 55.5732 210.522 55.6328C211.104 56.8705 212.08 57.4835 213.449 57.4715Z" fill="white"/>
<path opacity="0.947" fill-rule="evenodd" clip-rule="evenodd" d="M215.488 56.7879C215.291 56.693 215.161 56.7555 215.097 56.9756C214.711 58.2359 214.968 59.3545 215.868 60.3311C216.301 60.5509 216.62 60.4341 216.828 59.9809C217.009 58.6586 216.562 57.5943 215.488 56.7879Z" fill="white"/>
<path opacity="0.954" fill-rule="evenodd" clip-rule="evenodd" d="M217.185 55.5098C217.374 55.43 217.572 55.3871 217.78 55.3812C217.752 55.3048 217.752 55.2341 217.779 55.1688C217.101 53.748 215.986 52.9739 214.435 52.8464C213.682 53.0888 213.527 53.5423 213.97 54.2071C214.439 54.6881 214.984 55.0583 215.604 55.3173C216.136 55.4025 216.663 55.4667 217.185 55.5098Z" fill="white"/>
<path opacity="0.954" fill-rule="evenodd" clip-rule="evenodd" d="M219.274 54.4691C219.083 54.4914 218.947 54.5936 218.866 54.7758C218.831 55.2419 218.775 55.7094 218.699 56.1784C218.764 57.134 219.134 57.9549 219.809 58.641C220.323 58.9946 220.722 58.8891 221.006 58.3243C221.163 57.3196 220.937 56.4078 220.33 55.589C220.004 55.1896 219.652 54.8163 219.274 54.4691Z" fill="white"/>
<path opacity="0.957" fill-rule="evenodd" clip-rule="evenodd" d="M220.359 52.8013C220.606 52.7873 220.725 52.6625 220.715 52.4267C220.014 50.9708 218.865 50.1513 217.268 49.9685C216.399 50.2071 216.23 50.689 216.761 51.4143C217.736 52.4712 218.936 52.9335 220.359 52.8013Z" fill="white"/>
<path opacity="0.957" fill-rule="evenodd" clip-rule="evenodd" d="M222.123 51.0471C222.095 51.1038 222.067 51.1606 222.038 51.2173C222.072 51.2625 222.067 51.3022 222.022 51.3363C221.893 53.0056 222.53 54.2991 223.933 55.2166C224.599 55.3049 224.944 55.0097 224.968 54.3308C224.617 52.7196 223.668 51.625 222.123 51.0471Z" fill="white"/>
<path opacity="0.954" fill-rule="evenodd" clip-rule="evenodd" d="M222.799 48.8363C222.875 48.7973 222.903 48.7406 222.884 48.6662C221.94 47.3685 220.678 46.776 219.098 46.8885C218.581 46.9901 218.296 47.2938 218.242 47.7995C218.984 48.8271 219.991 49.2926 221.261 49.1961C221.788 49.1253 222.301 49.0053 222.799 48.8363Z" fill="white"/>
<path opacity="0.944" fill-rule="evenodd" clip-rule="evenodd" d="M209.531 20.8435C209.65 20.6851 209.77 20.5267 209.889 20.3683C211.182 20.8874 211.764 21.8573 211.634 23.2781C211.542 23.252 211.508 23.2972 211.532 23.4139C211.423 23.4035 211.321 23.3976 211.226 23.3964C210.166 22.8531 209.601 22.0022 209.531 20.8435Z" fill="white"/>
<path opacity="0.941" fill-rule="evenodd" clip-rule="evenodd" d="M211.939 24.1456C212.161 24.2586 212.285 24.4231 212.312 24.6392C211.543 25.3843 210.638 25.6433 209.599 25.416C208.783 24.9213 208.821 24.4709 209.712 24.0649C210.471 23.8253 211.213 23.8522 211.939 24.1456Z" fill="white"/>
<path opacity="0.859" fill-rule="evenodd" clip-rule="evenodd" d="M211.226 23.3962C211.321 23.3975 211.423 23.4034 211.532 23.4138C211.508 23.2971 211.542 23.2518 211.634 23.278C212.025 23.7412 212.432 24.1895 212.856 24.6231C212.95 24.7158 213.007 24.8293 213.025 24.9634C213.09 24.9737 213.152 24.9851 213.212 24.9977C214.056 25.6783 214.95 26.2805 215.894 26.8045C215.958 27.0246 216.088 27.0871 216.285 26.9922C217.504 27.5055 218.63 28.1761 219.663 29.0043C219.744 29.1865 219.88 29.2887 220.071 29.311C221.111 30.2471 222.027 31.2914 222.819 32.4437C222.784 32.489 222.79 32.5286 222.835 32.5627C222.864 32.6194 222.892 32.6761 222.92 32.7328C223.771 34.0433 224.335 35.4608 224.612 36.9854C224.544 37.0759 224.475 37.1665 224.407 37.257C224.328 37.2134 224.269 37.1509 224.229 37.0697C224.066 36.4094 223.883 35.7575 223.68 35.1139C223.7 35.0395 223.672 34.9828 223.596 34.9438C223.108 33.6359 222.413 32.4391 221.512 31.3534C221.522 31.1177 221.403 30.9928 221.156 30.9788C220.426 30.066 219.566 29.2769 218.576 28.6113C218.549 28.546 218.549 28.4752 218.577 28.3988C218.369 28.3929 218.171 28.35 217.982 28.2702C216.902 27.7327 215.832 27.1755 214.773 26.5984C214.745 26.5332 214.745 26.4624 214.773 26.386C214.594 26.3723 214.418 26.3464 214.246 26.3085C213.578 25.7791 212.933 25.2226 212.312 24.6391C212.285 24.423 212.161 24.2585 211.939 24.1455C211.701 23.8957 211.464 23.646 211.226 23.3962Z" fill="white"/>
<path opacity="0.946" fill-rule="evenodd" clip-rule="evenodd" d="M213.212 24.9979C213.152 24.9853 213.09 24.9738 213.025 24.9635C213.007 24.8294 212.95 24.716 212.856 24.6232C212.695 23.5669 213.003 22.6639 213.779 21.9138C214.356 21.6744 214.668 21.8733 214.712 22.5105C214.635 23.5966 214.135 24.4257 213.212 24.9979Z" fill="white"/>
<path opacity="0.952" fill-rule="evenodd" clip-rule="evenodd" d="M214.246 26.3085C214.419 26.3465 214.594 26.3723 214.773 26.386C214.745 26.4624 214.745 26.5332 214.773 26.5985C214.346 27.5082 213.682 28.1783 212.78 28.609C212.229 28.8501 211.751 28.7557 211.345 28.3258C211.336 28.2663 211.328 28.2068 211.319 28.1473C211.901 26.9095 212.877 26.2966 214.246 26.3085Z" fill="white"/>
<path opacity="0.947" fill-rule="evenodd" clip-rule="evenodd" d="M216.285 26.9923C216.088 27.0872 215.958 27.0247 215.894 26.8046C215.508 25.5442 215.765 24.4256 216.665 23.449C217.097 23.2293 217.417 23.3461 217.625 23.7993C217.806 25.1215 217.359 26.1859 216.285 26.9923Z" fill="white"/>
<path opacity="0.954" fill-rule="evenodd" clip-rule="evenodd" d="M217.982 28.2703C218.171 28.3501 218.369 28.393 218.577 28.3989C218.549 28.4753 218.549 28.5461 218.576 28.6114C217.898 30.0322 216.783 30.8063 215.232 30.9338C214.479 30.6913 214.324 30.2378 214.767 29.5731C215.236 29.092 215.781 28.7219 216.401 28.4628C216.933 28.3776 217.46 28.3134 217.982 28.2703Z" fill="white"/>
<path opacity="0.954" fill-rule="evenodd" clip-rule="evenodd" d="M220.071 29.3111C219.88 29.2888 219.744 29.1866 219.664 29.0043C219.628 28.5383 219.573 28.0708 219.496 27.6017C219.561 26.6462 219.931 25.8253 220.606 25.1391C221.12 24.7855 221.519 24.8911 221.803 25.4558C221.96 26.4605 221.735 27.3723 221.127 28.1912C220.801 28.5906 220.449 28.9638 220.071 29.3111Z" fill="white"/>
<path opacity="0.957" fill-rule="evenodd" clip-rule="evenodd" d="M221.156 30.9788C221.403 30.9929 221.522 31.1177 221.512 31.3534C220.811 32.8094 219.662 33.6288 218.065 33.8116C217.196 33.573 217.027 33.0911 217.558 32.3659C218.533 31.3089 219.733 30.8466 221.156 30.9788Z" fill="white"/>
<path opacity="0.957" fill-rule="evenodd" clip-rule="evenodd" d="M222.92 32.7329C222.892 32.6762 222.864 32.6195 222.835 32.5628C222.869 32.5175 222.864 32.4779 222.818 32.4438C222.689 30.7745 223.326 29.481 224.729 28.5634C225.396 28.4751 225.741 28.7703 225.765 29.4492C225.413 31.0604 224.465 32.155 222.92 32.7329Z" fill="white"/>
<path opacity="0.954" fill-rule="evenodd" clip-rule="evenodd" d="M223.596 34.944C223.672 34.983 223.7 35.0397 223.68 35.1141C222.737 36.4118 221.475 37.0043 219.895 36.8917C219.378 36.7901 219.093 36.4865 219.039 35.9808C219.781 34.9532 220.788 34.4877 222.058 34.5841C222.585 34.655 223.098 34.775 223.596 34.944Z" fill="white"/>
</svg>
