<svg width="276" height="78" viewBox="0 0 276 78" fill="none" xmlns="http://www.w3.org/2000/svg">
<path d="M25.665 45.536C25.665 45.5753 25.665 45.6147 25.665 45.654C25.7043 45.654 25.7437 45.654 25.783 45.654H48.793V63H1.18C1.18 60.5613 1.18 58.1227 1.18 55.684C1.18 53.2453 1.18 50.8067 1.18 48.368C1.18 45.89 1.18 43.4317 1.18 40.993C1.18 38.5543 1.18 36.1157 1.18 33.677C1.18 31.199 1.18 28.721 1.18 26.243C1.18 23.7257 1.18 21.228 1.18 18.75H25.665C25.665 20.992 25.665 23.234 25.665 25.476C25.665 27.6787 25.665 29.901 25.665 32.143C25.665 34.385 25.665 36.627 25.665 38.869C25.665 41.0717 25.665 43.294 25.665 45.536ZM97.8128 26.42C97.8128 29.0553 97.8128 31.7103 97.8128 34.385C97.8128 37.0597 97.8128 39.7343 97.8128 42.409C97.8128 44.6903 97.8128 46.9913 97.8128 49.312C97.8128 51.5933 97.8128 53.8747 97.8128 56.156C97.8128 58.4373 97.8128 60.7187 97.8128 63H77.3988C77.3988 61.348 77.3988 59.6763 77.3988 57.985C77.3988 56.2937 77.3988 54.6023 77.3988 52.911C77.3988 51.1803 77.3988 49.5087 77.3988 47.896C77.3988 44.238 77.3988 40.6587 77.3988 37.158C77.3988 33.618 77.3988 30.0387 77.3988 26.42H97.8128ZM71.1448 26.42C71.1448 28.5047 71.1448 30.609 71.1448 32.733C71.1448 34.8177 71.1448 36.9023 71.1448 38.987C71.1448 41.0717 71.1448 43.176 71.1448 45.3C71.1448 46.1653 71.2824 46.8733 71.5578 47.424C71.8724 47.9353 72.2658 48.309 72.7378 48.545C73.2491 48.7417 73.7801 48.84 74.3308 48.84C74.8814 48.84 75.4321 48.7417 75.9828 48.545C76.5728 48.3483 77.0448 48.1123 77.3988 47.837L72.6788 62.41C71.5774 62.9607 70.2204 63.413 68.6078 63.767C67.0344 64.121 65.3824 64.298 63.6518 64.298C62.0784 64.298 60.5248 64.1013 58.9908 63.708C57.4568 63.354 56.0604 62.7443 54.8018 61.879C53.5824 61.0137 52.5991 59.873 51.8518 58.457C51.1044 57.041 50.7308 55.271 50.7308 53.147C50.7308 50.315 50.7308 47.483 50.7308 44.651C50.7308 41.819 50.7308 38.987 50.7308 36.155C50.7308 34.5423 50.7308 32.9297 50.7308 31.317C50.7308 29.665 50.7308 28.0327 50.7308 26.42H71.1448ZM100.166 63C100.166 60.2073 100.166 57.4147 100.166 54.622C100.166 51.8293 100.166 49.0367 100.166 46.244C100.166 43.412 100.166 40.5997 100.166 37.807C100.166 35.8797 100.166 33.972 100.166 32.084C100.166 30.196 100.166 28.308 100.166 26.42H120.58C120.58 29.016 120.58 31.612 120.58 34.208C120.58 36.7647 120.58 39.341 120.58 41.937C120.58 45.4377 120.58 48.958 120.58 52.498C120.58 55.9987 120.58 59.4993 120.58 63H100.166ZM127.188 63C127.188 59.932 127.188 56.8247 127.188 53.678C127.188 50.5313 127.188 47.424 127.188 44.356C127.188 43.2153 126.893 42.409 126.303 41.937C125.753 41.465 125.084 41.2093 124.297 41.17C123.511 41.1307 122.783 41.229 122.114 41.465C121.485 41.701 121.092 41.937 120.934 42.173L125.654 27.01C128.526 25.7513 131.633 25.122 134.976 25.122C136.628 25.122 138.202 25.3187 139.696 25.712C141.191 26.1053 142.528 26.715 143.708 27.541C144.928 28.367 145.872 29.4683 146.54 30.845C147.248 32.1823 147.602 33.795 147.602 35.683C147.602 36.8237 147.602 37.984 147.602 39.164C147.602 40.344 147.602 41.5043 147.602 42.645C147.602 43.1957 147.602 43.766 147.602 44.356C147.602 44.9067 147.602 45.4573 147.602 46.008C147.602 46.5587 147.602 47.129 147.602 47.719C147.602 50.2363 147.602 52.7733 147.602 55.33C147.602 57.8867 147.602 60.4433 147.602 63H127.188ZM153.856 63C153.856 59.932 153.856 56.8247 153.856 53.678C153.856 50.5313 153.856 47.424 153.856 44.356C153.856 43.2153 153.561 42.409 152.971 41.937C152.421 41.465 151.752 41.2093 150.965 41.17C150.179 41.1307 149.451 41.229 148.782 41.465C148.153 41.701 147.76 41.937 147.602 42.173L151.732 27.01C153.148 26.3807 154.663 25.9087 156.275 25.594C157.927 25.2793 159.56 25.122 161.172 25.122C163.454 25.122 165.578 25.476 167.544 26.184C169.55 26.892 171.163 28.013 172.382 29.547C173.641 31.081 174.27 33.1263 174.27 35.683V63H153.856ZM230.252 38.102C230.252 35.86 230.881 33.913 232.14 32.261C233.438 30.609 235.188 29.2323 237.391 28.131C239.594 26.9903 242.091 26.1447 244.884 25.594C247.677 25.0433 250.587 24.768 253.616 24.768C257.353 24.768 260.814 25.1023 264 25.771C267.225 26.4397 270.136 27.3247 272.732 28.426V42.114C271.631 41.288 270.175 40.58 268.366 39.99C266.596 39.4 264.708 38.9477 262.702 38.633C260.735 38.3183 258.867 38.161 257.097 38.161C255.917 38.161 254.835 38.2397 253.852 38.397C252.908 38.515 252.141 38.7117 251.551 38.987C251 39.2623 250.725 39.6163 250.725 40.049C250.725 40.285 250.804 40.462 250.961 40.58C251.158 40.698 251.433 40.7767 251.787 40.816C252.141 40.8553 252.593 40.875 253.144 40.875C254.049 40.875 254.855 40.875 255.563 40.875C256.271 40.875 257.058 40.875 257.923 40.875C259.89 40.875 261.856 41.0127 263.823 41.288C265.829 41.524 267.638 42.0157 269.251 42.763C270.903 43.5103 272.221 44.592 273.204 46.008C274.187 47.3847 274.679 49.2137 274.679 51.495C274.679 53.8943 274.01 55.9397 272.673 57.631C271.375 59.283 269.585 60.64 267.304 61.702C265.062 62.7247 262.525 63.472 259.693 63.944C256.9 64.416 253.99 64.652 250.961 64.652C247.382 64.652 243.842 64.3177 240.341 63.649C236.88 62.9803 233.91 61.997 231.432 60.699V46.303C232.415 47.365 233.812 48.25 235.621 48.958C237.47 49.6267 239.456 50.138 241.58 50.492C243.743 50.8067 245.769 50.964 247.657 50.964C248.876 50.964 249.978 50.905 250.961 50.787C251.944 50.6297 252.711 50.4133 253.262 50.138C253.852 49.8233 254.147 49.43 254.147 48.958C254.147 48.7613 254.088 48.6237 253.97 48.545C253.852 48.4663 253.655 48.4073 253.38 48.368C253.144 48.3287 252.81 48.309 252.377 48.309C251.787 48.309 251.177 48.309 250.548 48.309C249.919 48.309 249.348 48.309 248.837 48.309C247.46 48.309 245.926 48.2697 244.235 48.191C242.583 48.073 240.931 47.8567 239.279 47.542C237.627 47.188 236.113 46.657 234.736 45.949C233.399 45.2017 232.317 44.1987 231.491 42.94C230.665 41.642 230.252 40.0293 230.252 38.102Z" fill="#FBEFDC"/>
<path opacity="0.986" d="M203.604 13.7285C204.042 19.2753 204.767 24.8955 205.779 30.3623L205.784 30.3887L205.792 30.4131C206.686 33.44 208.134 35.908 210.148 37.7949C212.163 39.6818 214.719 40.9661 217.798 41.6611L217.81 41.6641L217.822 41.666C219.343 41.9323 220.87 42.1281 222.404 42.2549C222.409 42.2571 222.419 42.2626 222.437 42.2754C222.457 42.2906 222.482 42.3122 222.514 42.3418C222.548 42.374 222.577 42.4018 222.621 42.4443C222.769 42.5866 222.95 42.6448 223.086 42.6641C223.884 42.7771 224.686 42.8128 225.491 42.7754C226.971 42.8794 228.447 43.0304 229.919 43.2236C229.779 43.3091 229.6 43.3832 229.412 43.4043C225.373 43.8584 221.348 44.4203 217.336 45.0898L217.319 45.0928L217.303 45.0967C214.282 45.8163 211.793 47.1147 209.86 49.0049C207.928 50.8951 206.574 53.3537 205.787 56.3584L205.781 56.3838C205.432 58.0741 205.12 59.7676 204.844 61.4639C204.79 61.7917 204.705 62.1256 204.613 62.4854C204.523 62.837 204.426 63.2144 204.364 63.5938C204.268 64.1856 204.265 64.7724 204.267 65.3193C204.268 65.8783 204.274 66.3932 204.211 66.9043C203.972 68.8322 203.776 70.768 203.619 72.7109C203.003 67.4339 202.255 62.1609 201.375 56.8926L201.371 56.873L201.366 56.8545L201.214 56.2764C200.416 53.4189 199.099 51.0557 197.249 49.2061C195.276 47.233 192.722 45.868 189.609 45.0977L189.59 45.0938L188.51 44.8818C187.428 44.6801 186.342 44.508 185.253 44.3643C184.917 44.3199 184.589 44.2466 184.231 44.1699C183.882 44.0949 183.506 44.017 183.113 43.9775C182.794 43.9455 182.468 43.9383 182.167 43.9307C181.859 43.9229 181.574 43.9147 181.302 43.8848C179.782 43.7177 178.259 43.56 176.734 43.4121C176.668 43.4056 176.616 43.3856 176.585 43.3652C176.557 43.3471 176.552 43.3343 176.551 43.3301C176.547 43.3196 176.55 43.3203 176.549 43.3252C176.55 43.3231 176.553 43.3148 176.565 43.3018C176.602 43.2629 176.68 43.2193 176.777 43.2119C180.905 42.8991 185.007 42.3836 189.086 41.666L189.104 41.6631L189.122 41.6582C192.75 40.7404 195.65 39.1146 197.79 36.7627C199.928 34.4135 201.278 31.372 201.863 27.667C201.977 27.0505 202.187 25.7599 202.371 24.4697C202.55 23.2166 202.71 21.9216 202.727 21.2549C202.853 19.9315 203.006 18.7564 203.158 17.5732C203.31 16.3916 203.46 15.2027 203.577 13.8652C203.58 13.8336 203.585 13.8022 203.593 13.7725L203.604 13.7285Z" fill="#FBEFDC" stroke="#FBEFDC"/>
<path opacity="0.986" d="M203.604 13.7285C204.042 19.2753 204.767 24.8955 205.779 30.3623L205.784 30.3887L205.792 30.4131C206.686 33.44 208.134 35.908 210.148 37.7949C212.163 39.6818 214.719 40.9661 217.798 41.6611L217.81 41.6641L217.822 41.666C219.343 41.9323 220.87 42.1281 222.404 42.2549C222.409 42.2571 222.419 42.2626 222.437 42.2754C222.457 42.2906 222.482 42.3122 222.514 42.3418C222.548 42.374 222.577 42.4018 222.621 42.4443C222.769 42.5866 222.95 42.6448 223.086 42.6641C223.884 42.7771 224.686 42.8128 225.491 42.7754C226.971 42.8794 228.447 43.0304 229.919 43.2236C229.779 43.3091 229.6 43.3832 229.412 43.4043C225.373 43.8584 221.348 44.4203 217.336 45.0898L217.319 45.0928L217.303 45.0967C214.282 45.8163 211.793 47.1147 209.86 49.0049C207.928 50.8951 206.574 53.3537 205.787 56.3584L205.781 56.3838C205.432 58.0741 205.12 59.7676 204.844 61.4639C204.79 61.7917 204.705 62.1256 204.613 62.4854C204.523 62.837 204.426 63.2144 204.364 63.5938C204.268 64.1856 204.265 64.7724 204.267 65.3193C204.268 65.8783 204.274 66.3932 204.211 66.9043C203.972 68.8322 203.776 70.768 203.619 72.7109C203.003 67.4339 202.255 62.1609 201.375 56.8926L201.371 56.873L201.366 56.8545L201.214 56.2764C200.416 53.4189 199.099 51.0557 197.249 49.2061C195.276 47.233 192.722 45.868 189.609 45.0977L189.59 45.0938L188.51 44.8818C187.428 44.6801 186.342 44.508 185.253 44.3643C184.917 44.3199 184.589 44.2466 184.231 44.1699C183.882 44.0949 183.506 44.017 183.113 43.9775C182.794 43.9455 182.468 43.9383 182.167 43.9307C181.859 43.9229 181.574 43.9147 181.302 43.8848C179.782 43.7177 178.259 43.56 176.734 43.4121C176.668 43.4056 176.616 43.3856 176.585 43.3652C176.557 43.3471 176.552 43.3343 176.551 43.3301C176.547 43.3196 176.55 43.3203 176.549 43.3252C176.55 43.3231 176.553 43.3148 176.565 43.3018C176.602 43.2629 176.68 43.2193 176.777 43.2119C180.905 42.8991 185.007 42.3836 189.086 41.666L189.104 41.6631L189.122 41.6582C192.75 40.7404 195.65 39.1146 197.79 36.7627C199.928 34.4135 201.278 31.372 201.863 27.667C201.977 27.0505 202.187 25.7599 202.371 24.4697C202.55 23.2166 202.71 21.9216 202.727 21.2549C202.853 19.9315 203.006 18.7564 203.158 17.5732C203.31 16.3916 203.46 15.2027 203.577 13.8652C203.58 13.8336 203.585 13.8022 203.593 13.7725L203.604 13.7285Z" fill="#FBEFDC" stroke="#FBEFDC"/>
<path opacity="0.889" d="M207.277 23.6582C207.449 23.6653 207.619 23.6818 207.789 23.7109C207.798 23.7818 207.799 23.837 207.796 23.8789C207.783 23.878 207.768 23.8803 207.751 23.8779C207.651 23.8639 207.509 23.8227 207.32 23.7441C207.304 23.7158 207.29 23.6871 207.277 23.6582Z" fill="#FBEFDC" stroke="#FBEFDC"/>
<path opacity="0.835" d="M198.713 62.8506C198.895 62.85 199.075 62.8678 199.253 62.9043C199.271 62.9722 199.28 63.026 199.283 63.0674L199.281 63.0684C199.195 63.0708 199.061 63.0544 198.869 63.0049C198.805 62.9624 198.764 62.9276 198.74 62.9004C198.726 62.8843 198.719 62.8727 198.716 62.8662C198.714 62.863 198.713 62.8605 198.713 62.8594L198.712 62.8584V62.8564C198.712 62.8554 198.712 62.8531 198.713 62.8506Z" fill="#FBEFDC" stroke="#FBEFDC"/>
<path opacity="0.944" fill-rule="evenodd" clip-rule="evenodd" d="M198.962 20.5565C198.843 20.3981 198.724 20.2396 198.604 20.0812C197.311 20.6003 196.73 21.5703 196.859 22.9911C196.951 22.9649 196.985 23.0101 196.961 23.1269C197.071 23.1165 197.173 23.1106 197.267 23.1093C198.328 22.5661 198.893 21.7152 198.962 20.5565Z" fill="#FBEFDC"/>
<path opacity="0.941" fill-rule="evenodd" clip-rule="evenodd" d="M196.555 23.8584C196.332 23.9714 196.208 24.1359 196.182 24.352C196.951 25.0972 197.855 25.3562 198.894 25.1288C199.71 24.6341 199.673 24.1838 198.781 23.7778C198.022 23.5382 197.28 23.5651 196.555 23.8584Z" fill="#FBEFDC"/>
<path opacity="0.859" fill-rule="evenodd" clip-rule="evenodd" d="M197.267 23.1093C197.173 23.1106 197.071 23.1165 196.961 23.1269C196.985 23.0101 196.951 22.9649 196.859 22.9911C196.469 23.4542 196.061 23.9026 195.638 24.3362C195.543 24.4289 195.487 24.5424 195.468 24.6765C195.403 24.6867 195.341 24.6982 195.282 24.7108C194.438 25.3914 193.544 25.9936 192.599 26.5176C192.536 26.7376 192.405 26.8002 192.209 26.7053C190.99 27.2185 189.863 27.8892 188.83 28.7173C188.749 28.8995 188.613 29.0018 188.423 29.024C187.382 29.9602 186.466 31.0044 185.675 32.1568C185.709 32.202 185.703 32.2417 185.658 32.2758C185.63 32.3325 185.602 32.3892 185.573 32.4459C184.722 33.7564 184.159 35.1739 183.882 36.6985C183.95 36.789 184.018 36.8795 184.086 36.9701C184.165 36.9264 184.225 36.864 184.264 36.7828C184.428 36.1225 184.611 35.4706 184.813 34.827C184.793 34.7526 184.821 34.6959 184.898 34.6569C185.385 33.349 186.08 32.1522 186.982 31.0665C186.972 30.8307 187.09 30.7059 187.338 30.6918C188.068 29.7791 188.927 28.9899 189.917 28.3243C189.945 28.2591 189.945 28.1883 189.917 28.1119C190.124 28.106 190.322 28.0631 190.511 27.9833C191.591 27.4458 192.661 26.8885 193.721 26.3115C193.748 26.2462 193.748 26.1755 193.72 26.099C193.899 26.0853 194.075 26.0595 194.247 26.0216C194.916 25.4921 195.56 24.9356 196.182 24.3522C196.208 24.136 196.333 23.9715 196.555 23.8585C196.792 23.6088 197.03 23.3591 197.267 23.1093Z" fill="#D3C8B9"/>
<path opacity="0.946" fill-rule="evenodd" clip-rule="evenodd" d="M195.282 24.7107C195.341 24.6982 195.403 24.6867 195.468 24.6764C195.487 24.5423 195.543 24.4289 195.638 24.3361C195.798 23.2798 195.491 22.3768 194.715 21.6267C194.137 21.3873 193.826 21.5862 193.781 22.2234C193.858 23.3095 194.358 24.1386 195.282 24.7107Z" fill="#E5DDD1"/>
<path opacity="0.952" fill-rule="evenodd" clip-rule="evenodd" d="M194.247 26.0214C194.075 26.0594 193.899 26.0852 193.72 26.0989C193.748 26.1753 193.748 26.2461 193.721 26.3114C194.148 27.2211 194.812 27.8912 195.713 28.3218C196.264 28.563 196.743 28.4686 197.149 28.0387C197.157 27.9792 197.166 27.9197 197.174 27.8602C196.592 26.6224 195.617 26.0094 194.247 26.0214Z" fill="#E5DDD1"/>
<path opacity="0.947" fill-rule="evenodd" clip-rule="evenodd" d="M192.209 26.7051C192.405 26.8 192.536 26.7375 192.599 26.5174C192.986 25.257 192.729 24.1385 191.828 23.1618C191.396 22.9421 191.076 23.0589 190.868 23.5121C190.688 24.8343 191.134 25.8987 192.209 26.7051Z" fill="#FBEFDC"/>
<path opacity="0.954" fill-rule="evenodd" clip-rule="evenodd" d="M190.511 27.9832C190.322 28.063 190.124 28.1059 189.917 28.1118C189.945 28.1882 189.945 28.259 189.917 28.3243C190.596 29.7451 191.71 30.5192 193.261 30.6467C194.014 30.4042 194.169 29.9507 193.726 29.286C193.257 28.8049 192.713 28.4348 192.092 28.1757C191.561 28.0905 191.034 28.0263 190.511 27.9832Z" fill="#FBEFDC"/>
<path opacity="0.954" fill-rule="evenodd" clip-rule="evenodd" d="M188.423 29.024C188.614 29.0017 188.749 28.8994 188.83 28.7172C188.865 28.2512 188.921 27.7837 188.997 27.3146C188.933 26.359 188.563 25.5382 187.888 24.852C187.374 24.4984 186.975 24.604 186.69 25.1687C186.534 26.1734 186.759 27.0852 187.367 27.9041C187.692 28.3035 188.044 28.6767 188.423 29.024Z" fill="#E5DDD1"/>
<path opacity="0.957" fill-rule="evenodd" clip-rule="evenodd" d="M187.338 30.6918C187.091 30.7058 186.972 30.8307 186.982 31.0664C187.683 32.5223 188.831 33.3418 190.428 33.5246C191.297 33.286 191.466 32.8041 190.936 32.0788C189.96 31.0219 188.761 30.5596 187.338 30.6918Z" fill="#FBEFDC"/>
<path opacity="0.957" fill-rule="evenodd" clip-rule="evenodd" d="M185.573 32.4458C185.602 32.3891 185.63 32.3324 185.658 32.2757C185.624 32.2304 185.629 32.1907 185.675 32.1566C185.804 30.4874 185.167 29.1939 183.764 28.2763C183.097 28.188 182.752 28.4832 182.728 29.1621C183.08 30.7733 184.028 31.8679 185.573 32.4458Z" fill="#FBEFDC"/>
<path opacity="0.954" fill-rule="evenodd" clip-rule="evenodd" d="M184.898 34.6566C184.821 34.6956 184.793 34.7524 184.813 34.8267C185.756 36.1244 187.018 36.717 188.598 36.6044C189.115 36.5028 189.401 36.1991 189.455 35.6934C188.712 34.6658 187.706 34.2003 186.435 34.2968C185.908 34.3676 185.396 34.4876 184.898 34.6566Z" fill="#E5DDD1"/>
<path opacity="0.944" fill-rule="evenodd" clip-rule="evenodd" d="M198.476 62.9367C198.356 63.0951 198.237 63.2535 198.118 63.4119C196.825 62.8928 196.243 61.9229 196.372 60.5021C196.464 60.5282 196.499 60.483 196.475 60.3663C196.584 60.3767 196.686 60.3826 196.781 60.3839C197.841 60.9271 198.406 61.778 198.476 62.9367Z" fill="#FBEFDC"/>
<path opacity="0.941" fill-rule="evenodd" clip-rule="evenodd" d="M196.068 59.6346C195.846 59.5216 195.722 59.3571 195.695 59.141C196.464 58.3959 197.368 58.1369 198.408 58.3642C199.224 58.8589 199.186 59.3093 198.295 59.7153C197.536 59.9549 196.793 59.928 196.068 59.6346Z" fill="#FBEFDC"/>
<path opacity="0.859" fill-rule="evenodd" clip-rule="evenodd" d="M196.781 60.3839C196.686 60.3826 196.584 60.3767 196.475 60.3663C196.499 60.483 196.464 60.5283 196.372 60.5021C195.982 60.0389 195.575 59.5906 195.151 59.157C195.057 59.0643 195 58.9508 194.982 58.8167C194.917 58.8064 194.855 58.7949 194.795 58.7824C193.951 58.1018 193.057 57.4996 192.113 56.9756C192.049 56.7555 191.919 56.693 191.722 56.7879C190.503 56.2746 189.377 55.604 188.343 54.7758C188.263 54.5936 188.127 54.4914 187.936 54.4691C186.895 53.533 185.98 52.4887 185.188 51.3364C185.222 51.2911 185.217 51.2515 185.171 51.2174C185.143 51.1607 185.115 51.104 185.087 51.0473C184.236 49.7368 183.672 48.3193 183.395 46.7947C183.463 46.7042 183.531 46.6136 183.6 46.5231C183.679 46.5667 183.738 46.6292 183.778 46.7104C183.941 47.3707 184.124 48.0226 184.326 48.6662C184.307 48.7405 184.335 48.7973 184.411 48.8363C184.899 50.1442 185.593 51.341 186.495 52.4267C186.485 52.6624 186.604 52.7873 186.851 52.8013C187.581 53.7141 188.441 54.5032 189.43 55.1688C189.458 55.2341 189.458 55.3049 189.43 55.3813C189.638 55.3872 189.836 55.43 190.025 55.5099C191.105 56.0474 192.175 56.6046 193.234 57.1817C193.262 57.2469 193.262 57.3177 193.234 57.3941C193.413 57.4078 193.588 57.4336 193.761 57.4716C194.429 58.001 195.074 58.5575 195.695 59.141C195.722 59.3571 195.846 59.5216 196.068 59.6346C196.306 59.8844 196.543 60.1341 196.781 60.3839Z" fill="#D3C8B9"/>
<path opacity="0.946" fill-rule="evenodd" clip-rule="evenodd" d="M194.795 58.7823C194.855 58.7949 194.917 58.8064 194.982 58.8166C195 58.9507 195.057 59.0642 195.151 59.1569C195.312 60.2132 195.004 61.1163 194.228 61.8663C193.651 62.1057 193.339 61.9068 193.294 61.2696C193.372 60.1836 193.872 59.3545 194.795 58.7823Z" fill="#E5DDD1"/>
<path opacity="0.952" fill-rule="evenodd" clip-rule="evenodd" d="M193.761 57.4714C193.589 57.4334 193.413 57.4076 193.234 57.3939C193.262 57.3175 193.262 57.2467 193.234 57.1814C193.661 56.2717 194.325 55.6016 195.227 55.171C195.778 54.9298 196.256 55.0242 196.662 55.4541C196.671 55.5136 196.679 55.5731 196.688 55.6326C196.106 56.8704 195.13 57.4834 193.761 57.4714Z" fill="#E5DDD1"/>
<path opacity="0.947" fill-rule="evenodd" clip-rule="evenodd" d="M191.722 56.7878C191.919 56.6929 192.049 56.7554 192.113 56.9755C192.499 58.2359 192.242 59.3545 191.341 60.3311C190.909 60.5508 190.59 60.434 190.382 59.9808C190.201 58.6586 190.648 57.5942 191.722 56.7878Z" fill="#FBEFDC"/>
<path opacity="0.954" fill-rule="evenodd" clip-rule="evenodd" d="M190.025 55.5098C189.836 55.43 189.638 55.3871 189.43 55.3812C189.458 55.3048 189.458 55.2341 189.43 55.1688C190.109 53.748 191.224 52.9739 192.775 52.8464C193.528 53.0888 193.683 53.5423 193.24 54.2071C192.771 54.6881 192.226 55.0583 191.606 55.3173C191.074 55.4025 190.547 55.4667 190.025 55.5098Z" fill="#FBEFDC"/>
<path opacity="0.954" fill-rule="evenodd" clip-rule="evenodd" d="M187.936 54.469C188.127 54.4912 188.262 54.5935 188.343 54.7757C188.379 55.2417 188.434 55.7093 188.511 56.1783C188.446 57.1339 188.076 57.9547 187.401 58.6409C186.887 58.9945 186.488 58.8889 186.203 58.3242C186.047 57.3195 186.272 56.4077 186.88 55.5888C187.205 55.1895 187.557 54.8162 187.936 54.469Z" fill="#E5DDD1"/>
<path opacity="0.957" fill-rule="evenodd" clip-rule="evenodd" d="M186.851 52.8013C186.604 52.7872 186.485 52.6624 186.495 52.4267C187.196 50.9707 188.345 50.1513 189.942 49.9685C190.81 50.2071 190.979 50.689 190.449 51.4142C189.473 52.4711 188.274 52.9335 186.851 52.8013Z" fill="#FBEFDC"/>
<path opacity="0.957" fill-rule="evenodd" clip-rule="evenodd" d="M185.087 51.0471C185.115 51.1038 185.143 51.1606 185.171 51.2173C185.137 51.2625 185.143 51.3022 185.188 51.3363C185.317 53.0056 184.68 54.2991 183.277 55.2166C182.611 55.3049 182.266 55.0097 182.242 54.3308C182.593 52.7196 183.541 51.625 185.087 51.0471Z" fill="#FBEFDC"/>
<path opacity="0.954" fill-rule="evenodd" clip-rule="evenodd" d="M184.411 48.8362C184.335 48.7972 184.307 48.7404 184.326 48.6661C185.27 47.3684 186.532 46.7758 188.112 46.8884C188.629 46.99 188.914 47.2937 188.968 47.7994C188.226 48.827 187.219 49.2925 185.949 49.196C185.422 49.1252 184.909 49.0052 184.411 48.8362Z" fill="#E5DDD1"/>
<path opacity="0.944" fill-rule="evenodd" clip-rule="evenodd" d="M208.734 62.9367C208.854 63.0951 208.973 63.2535 209.092 63.4119C210.385 62.8928 210.967 61.9229 210.837 60.5021C210.745 60.5282 210.711 60.483 210.735 60.3663C210.626 60.3767 210.524 60.3826 210.429 60.3839C209.369 60.9271 208.804 61.778 208.734 62.9367Z" fill="#FBEFDC"/>
<path opacity="0.941" fill-rule="evenodd" clip-rule="evenodd" d="M211.142 59.6346C211.364 59.5216 211.488 59.3571 211.515 59.141C210.746 58.3959 209.841 58.1369 208.802 58.3642C207.986 58.8589 208.024 59.3093 208.915 59.7153C209.674 59.9549 210.416 59.928 211.142 59.6346Z" fill="#FBEFDC"/>
<path opacity="0.859" fill-rule="evenodd" clip-rule="evenodd" d="M210.429 60.3839C210.524 60.3826 210.626 60.3767 210.735 60.3663C210.711 60.483 210.745 60.5283 210.837 60.5021C211.228 60.0389 211.635 59.5906 212.059 59.157C212.153 59.0643 212.21 58.9508 212.228 58.8167C212.293 58.8064 212.355 58.7949 212.415 58.7824C213.259 58.1018 214.153 57.4996 215.097 56.9756C215.161 56.7555 215.291 56.693 215.488 56.7879C216.707 56.2746 217.833 55.604 218.867 54.7758C218.947 54.5936 219.083 54.4914 219.274 54.4691C220.314 53.533 221.23 52.4887 222.022 51.3364C221.988 51.2911 221.993 51.2515 222.038 51.2174C222.067 51.1607 222.095 51.104 222.123 51.0473C222.974 49.7368 223.538 48.3193 223.815 46.7947C223.747 46.7042 223.679 46.6136 223.61 46.5231C223.531 46.5667 223.472 46.6292 223.432 46.7104C223.269 47.3707 223.086 48.0226 222.884 48.6662C222.903 48.7405 222.875 48.7973 222.799 48.8363C222.311 50.1442 221.617 51.341 220.715 52.4267C220.725 52.6624 220.606 52.7873 220.359 52.8013C219.629 53.7141 218.769 54.5032 217.779 55.1688C217.752 55.2341 217.752 55.3049 217.78 55.3813C217.572 55.3872 217.374 55.43 217.185 55.5099C216.105 56.0474 215.035 56.6046 213.976 57.1817C213.948 57.2469 213.948 57.3177 213.976 57.3941C213.797 57.4078 213.622 57.4336 213.449 57.4716C212.781 58.001 212.136 58.5575 211.515 59.141C211.488 59.3571 211.364 59.5216 211.142 59.6346C210.904 59.8844 210.667 60.1341 210.429 60.3839Z" fill="#D3C8B9"/>
<path opacity="0.946" fill-rule="evenodd" clip-rule="evenodd" d="M212.415 58.7823C212.355 58.7949 212.293 58.8064 212.228 58.8166C212.209 58.9507 212.153 59.0642 212.059 59.1569C211.898 60.2132 212.205 61.1163 212.981 61.8663C213.559 62.1057 213.87 61.9068 213.915 61.2696C213.838 60.1836 213.338 59.3545 212.415 58.7823Z" fill="#E5DDD1"/>
<path opacity="0.952" fill-rule="evenodd" clip-rule="evenodd" d="M213.449 57.4714C213.621 57.4334 213.797 57.4076 213.976 57.3939C213.948 57.3175 213.948 57.2467 213.976 57.1814C213.549 56.2717 212.885 55.6016 211.983 55.171C211.432 54.9298 210.954 55.0242 210.547 55.4541C210.539 55.5136 210.531 55.5731 210.522 55.6326C211.104 56.8704 212.08 57.4834 213.449 57.4714Z" fill="#E5DDD1"/>
<path opacity="0.947" fill-rule="evenodd" clip-rule="evenodd" d="M215.488 56.7878C215.291 56.6929 215.161 56.7554 215.097 56.9755C214.711 58.2359 214.968 59.3545 215.868 60.3311C216.301 60.5508 216.62 60.434 216.828 59.9808C217.009 58.6586 216.562 57.5942 215.488 56.7878Z" fill="#FBEFDC"/>
<path opacity="0.954" fill-rule="evenodd" clip-rule="evenodd" d="M217.185 55.5098C217.374 55.43 217.572 55.3871 217.78 55.3812C217.752 55.3048 217.752 55.2341 217.779 55.1688C217.101 53.748 215.986 52.9739 214.435 52.8464C213.682 53.0888 213.527 53.5423 213.97 54.2071C214.439 54.6881 214.984 55.0583 215.604 55.3173C216.136 55.4025 216.663 55.4667 217.185 55.5098Z" fill="#FBEFDC"/>
<path opacity="0.954" fill-rule="evenodd" clip-rule="evenodd" d="M219.274 54.469C219.083 54.4912 218.947 54.5935 218.866 54.7757C218.831 55.2417 218.775 55.7093 218.699 56.1783C218.764 57.1339 219.134 57.9547 219.809 58.6409C220.323 58.9945 220.722 58.8889 221.006 58.3242C221.163 57.3195 220.937 56.4077 220.33 55.5888C220.004 55.1895 219.652 54.8162 219.274 54.469Z" fill="#E5DDD1"/>
<path opacity="0.957" fill-rule="evenodd" clip-rule="evenodd" d="M220.359 52.8013C220.606 52.7872 220.725 52.6624 220.715 52.4267C220.014 50.9707 218.865 50.1513 217.268 49.9685C216.399 50.2071 216.23 50.689 216.761 51.4142C217.736 52.4711 218.936 52.9335 220.359 52.8013Z" fill="#FBEFDC"/>
<path opacity="0.957" fill-rule="evenodd" clip-rule="evenodd" d="M222.123 51.0471C222.095 51.1038 222.067 51.1606 222.038 51.2173C222.072 51.2625 222.067 51.3022 222.022 51.3363C221.893 53.0056 222.53 54.2991 223.933 55.2166C224.599 55.3049 224.944 55.0097 224.968 54.3308C224.617 52.7196 223.668 51.625 222.123 51.0471Z" fill="#FBEFDC"/>
<path opacity="0.954" fill-rule="evenodd" clip-rule="evenodd" d="M222.799 48.8362C222.875 48.7972 222.903 48.7404 222.884 48.6661C221.94 47.3684 220.678 46.7758 219.098 46.8884C218.581 46.99 218.296 47.2937 218.242 47.7994C218.984 48.827 219.991 49.2925 221.261 49.196C221.788 49.1252 222.301 49.0052 222.799 48.8362Z" fill="#E5DDD1"/>
<path opacity="0.944" fill-rule="evenodd" clip-rule="evenodd" d="M209.531 20.8436C209.65 20.6852 209.77 20.5267 209.889 20.3683C211.182 20.8874 211.764 21.8574 211.634 23.2782C211.542 23.252 211.508 23.2972 211.532 23.414C211.423 23.4036 211.321 23.3977 211.226 23.3964C210.166 22.8532 209.601 22.0023 209.531 20.8436Z" fill="#FBEFDC"/>
<path opacity="0.941" fill-rule="evenodd" clip-rule="evenodd" d="M211.939 24.1456C212.161 24.2586 212.285 24.4231 212.312 24.6393C211.543 25.3844 210.638 25.6434 209.599 25.4161C208.783 24.9214 208.821 24.471 209.712 24.065C210.471 23.8254 211.213 23.8523 211.939 24.1456Z" fill="#FBEFDC"/>
<path opacity="0.859" fill-rule="evenodd" clip-rule="evenodd" d="M211.226 23.3963C211.321 23.3975 211.423 23.4034 211.532 23.4139C211.508 23.2971 211.542 23.2519 211.634 23.2781C212.025 23.7412 212.432 24.1896 212.856 24.6232C212.95 24.7159 213.007 24.8293 213.025 24.9634C213.09 24.9737 213.152 24.9852 213.212 24.9978C214.056 25.6783 214.95 26.2806 215.894 26.8046C215.958 27.0246 216.088 27.0872 216.285 26.9923C217.504 27.5055 218.63 28.1762 219.663 29.0043C219.744 29.1865 219.88 29.2888 220.071 29.311C221.111 30.2471 222.027 31.2914 222.819 32.4437C222.784 32.489 222.79 32.5287 222.835 32.5628C222.864 32.6195 222.892 32.6762 222.92 32.7329C223.771 34.0434 224.335 35.4608 224.612 36.9855C224.544 37.076 224.475 37.1665 224.407 37.257C224.328 37.2134 224.269 37.151 224.229 37.0697C224.066 36.4095 223.883 35.7575 223.68 35.114C223.7 35.0396 223.672 34.9829 223.596 34.9439C223.108 33.636 222.413 32.4392 221.512 31.3535C221.522 31.1177 221.403 30.9929 221.156 30.9788C220.426 30.066 219.566 29.2769 218.576 28.6113C218.549 28.546 218.549 28.4753 218.577 28.3989C218.369 28.393 218.171 28.3501 217.982 28.2703C216.902 27.7328 215.832 27.1755 214.773 26.5985C214.745 26.5332 214.745 26.4624 214.773 26.386C214.594 26.3723 214.418 26.3465 214.246 26.3085C213.578 25.7791 212.933 25.2226 212.312 24.6391C212.285 24.423 212.161 24.2585 211.939 24.1455C211.701 23.8958 211.464 23.6461 211.226 23.3963Z" fill="#D3C8B9"/>
<path opacity="0.946" fill-rule="evenodd" clip-rule="evenodd" d="M213.212 24.9979C213.152 24.9853 213.09 24.9738 213.025 24.9635C213.007 24.8294 212.95 24.716 212.856 24.6232C212.695 23.5669 213.003 22.6639 213.779 21.9138C214.356 21.6744 214.668 21.8733 214.712 22.5105C214.635 23.5966 214.135 24.4257 213.212 24.9979Z" fill="#E5DDD1"/>
<path opacity="0.952" fill-rule="evenodd" clip-rule="evenodd" d="M214.246 26.3085C214.419 26.3465 214.594 26.3723 214.773 26.386C214.745 26.4624 214.745 26.5332 214.773 26.5985C214.346 27.5082 213.682 28.1783 212.78 28.609C212.229 28.8501 211.751 28.7557 211.345 28.3258C211.336 28.2663 211.328 28.2068 211.319 28.1473C211.901 26.9095 212.877 26.2966 214.246 26.3085Z" fill="#E5DDD1"/>
<path opacity="0.947" fill-rule="evenodd" clip-rule="evenodd" d="M216.285 26.9922C216.088 27.0871 215.958 27.0246 215.894 26.8045C215.508 25.5441 215.765 24.4256 216.665 23.4489C217.097 23.2292 217.417 23.346 217.625 23.7992C217.806 25.1215 217.359 26.1858 216.285 26.9922Z" fill="#FBEFDC"/>
<path opacity="0.954" fill-rule="evenodd" clip-rule="evenodd" d="M217.982 28.2703C218.171 28.3501 218.369 28.393 218.577 28.3989C218.549 28.4753 218.549 28.5461 218.576 28.6114C217.898 30.0322 216.783 30.8063 215.232 30.9338C214.479 30.6913 214.324 30.2378 214.767 29.5731C215.236 29.092 215.781 28.7219 216.401 28.4628C216.933 28.3776 217.46 28.3134 217.982 28.2703Z" fill="#FBEFDC"/>
<path opacity="0.954" fill-rule="evenodd" clip-rule="evenodd" d="M220.071 29.3111C219.88 29.2888 219.744 29.1866 219.664 29.0043C219.628 28.5383 219.573 28.0708 219.496 27.6017C219.561 26.6462 219.931 25.8253 220.606 25.1391C221.12 24.7855 221.519 24.8911 221.803 25.4558C221.96 26.4605 221.735 27.3723 221.127 28.1912C220.801 28.5906 220.449 28.9638 220.071 29.3111Z" fill="#E5DDD1"/>
<path opacity="0.957" fill-rule="evenodd" clip-rule="evenodd" d="M221.156 30.9787C221.403 30.9928 221.522 31.1176 221.512 31.3534C220.811 32.8093 219.662 33.6288 218.065 33.8116C217.196 33.573 217.027 33.0911 217.558 32.3658C218.533 31.3089 219.733 30.8466 221.156 30.9787Z" fill="#FBEFDC"/>
<path opacity="0.957" fill-rule="evenodd" clip-rule="evenodd" d="M222.92 32.7329C222.892 32.6762 222.864 32.6195 222.835 32.5628C222.869 32.5175 222.864 32.4779 222.818 32.4438C222.689 30.7745 223.326 29.481 224.729 28.5634C225.396 28.4751 225.741 28.7703 225.765 29.4492C225.413 31.0604 224.465 32.155 222.92 32.7329Z" fill="#FBEFDC"/>
<path opacity="0.954" fill-rule="evenodd" clip-rule="evenodd" d="M223.596 34.944C223.672 34.983 223.7 35.0397 223.68 35.1141C222.737 36.4118 221.475 37.0043 219.895 36.8917C219.378 36.7901 219.093 36.4865 219.039 35.9808C219.781 34.9532 220.788 34.4877 222.058 34.5841C222.585 34.655 223.098 34.775 223.596 34.944Z" fill="#E5DDD1"/>
</svg>
